#N canvas 50 167 678 300 10;
#X declare -lib mrpeach;
#X obj 5 10 import mrpeach;
#X obj 155 10 udpreceive 5000;
#X obj 155 40 osc/unpackOSC;
#X obj 155 70 osc/routeOSC /muse/elements/delta_relative /muse/elements/theta_relative
/muse/elements/alpha_relative /muse/elements/beta_relative /muse/elements/gamma_relative
;
#X floatatom 155 127 5 0 0 0 - - -;
#X floatatom 225 127 5 0 0 0 - - -;
#X floatatom 295 127 5 0 0 0 - - -;
#X floatatom 365 127 5 0 0 0 - - -;
#X floatatom 435 127 5 0 0 0 - - -;
#X connect 1 0 2 0;
#X connect 2 0 3 0;
#X connect 3 0 4 0;
#X connect 3 1 5 0;
#X connect 3 2 6 0;
#X connect 3 3 7 0;
#X connect 3 4 8 0;
