#N canvas 130 112 373 173 10;
#N canvas 895 120 210 483 metro 1;
#X obj -46 -41 metro;
#X obj -46 -11 t b b;
#X obj -19 49 expr $f1 % 4;
#X obj -19 19 i 0;
#X obj 3 19 + 1;
#X obj 8 109 select 0;
#X obj 8 139 i 0;
#X obj 30 139 + 1;
#X obj 8 169 expr $f1 % 12;
#X obj -46 -131 inlet toggle;
#X obj -19 -101 inlet tempo;
#X obj -46 349 outlet metro;
#X obj -19 289 outlet note_index;
#X obj 8 229 outlet row_index;
#X obj -19 -71 expr 60000 / (($f1 + 2) * 30);
#X obj -46 319 bng 17 250 50 0 empty empty empty 17 7 0 10 -262144
-1 -1;
#X floatatom 8 200 5 0 0 0 - - -;
#X floatatom -19 260 5 0 0 0 - - -;
#X obj -19 79 t f f;
#X connect 0 0 1 0;
#X connect 1 0 15 0;
#X connect 1 1 3 0;
#X connect 2 0 18 0;
#X connect 3 0 2 0;
#X connect 3 0 4 0;
#X connect 4 0 3 1;
#X connect 5 0 6 0;
#X connect 6 0 7 0;
#X connect 6 0 8 0;
#X connect 7 0 6 1;
#X connect 8 0 16 0;
#X connect 9 0 0 0;
#X connect 10 0 14 0;
#X connect 14 0 0 1;
#X connect 15 0 11 0;
#X connect 16 0 13 0;
#X connect 17 0 12 0;
#X connect 18 0 17 0;
#X connect 18 1 5 0;
#X restore 104 91 pd metro;
#N canvas 720 312 582 324 sequencer 1;
#X obj 54 69 sel 0 1 2 3 4 5 6 7 8 9 10 11;
#X obj 54 189 i;
#X floatatom 69 40 5 0 0 0 - - -;
#X floatatom 109 40 5 0 0 0 - - -;
#X floatatom 149 40 5 0 0 0 - - -;
#X floatatom 189 40 5 0 0 0 - - -;
#X floatatom 229 40 5 0 0 0 - - -;
#X floatatom 269 40 5 0 0 0 - - -;
#X floatatom 309 40 5 0 0 0 - - -;
#X floatatom 349 40 5 0 0 0 - - -;
#X floatatom 389 40 5 0 0 0 - - -;
#X floatatom 429 40 5 0 0 0 - - -;
#X floatatom 469 40 5 0 0 0 - - -;
#X floatatom 509 40 5 0 0 0 - - -;
#X obj 54 129 i;
#X obj 94 129 i;
#X obj 134 129 i;
#X obj 174 129 i;
#X obj 214 129 i;
#X obj 254 129 i;
#X obj 294 129 i;
#X obj 334 129 i;
#X obj 374 129 i;
#X obj 414 129 i;
#X obj 454 129 i;
#X obj 494 129 i;
#X obj 54 9 unpack f f f f f f f f f f f f;
#X obj 24 99 loadbang;
#X obj 54 219 outlet midi_pitch;
#X obj 24 -21 inlet midi_sequence;
#X obj -6 -51 inlet sequence_index;
#X obj -36 -81 inlet metro;
#X connect 0 0 14 0;
#X connect 0 1 15 0;
#X connect 0 2 16 0;
#X connect 0 3 17 0;
#X connect 0 4 18 0;
#X connect 0 5 19 0;
#X connect 0 6 20 0;
#X connect 0 7 21 0;
#X connect 0 8 22 0;
#X connect 0 9 23 0;
#X connect 0 10 24 0;
#X connect 0 11 25 0;
#X connect 1 0 28 0;
#X connect 2 0 14 1;
#X connect 3 0 15 1;
#X connect 4 0 16 1;
#X connect 5 0 17 1;
#X connect 6 0 18 1;
#X connect 7 0 19 1;
#X connect 8 0 20 1;
#X connect 9 0 21 1;
#X connect 10 0 22 1;
#X connect 11 0 23 1;
#X connect 12 0 24 1;
#X connect 13 0 25 1;
#X connect 14 0 1 1;
#X connect 15 0 1 1;
#X connect 16 0 1 1;
#X connect 17 0 1 1;
#X connect 18 0 1 1;
#X connect 19 0 1 1;
#X connect 20 0 1 1;
#X connect 21 0 1 1;
#X connect 22 0 1 1;
#X connect 23 0 1 1;
#X connect 24 0 1 1;
#X connect 25 0 1 1;
#X connect 26 0 2 0;
#X connect 26 1 3 0;
#X connect 26 2 4 0;
#X connect 26 3 5 0;
#X connect 26 4 6 0;
#X connect 26 5 7 0;
#X connect 26 6 8 0;
#X connect 26 7 9 0;
#X connect 26 8 10 0;
#X connect 26 9 11 0;
#X connect 26 10 12 0;
#X connect 26 11 13 0;
#X connect 27 0 14 0;
#X connect 29 0 26 0;
#X connect 30 0 0 0;
#X connect 31 0 1 0;
#X restore 104 121 pd sequencer;
#X floatatom 104 152 5 0 0 0 - - -;
#X obj 137 153 bng 15 250 50 0 empty empty empty 17 7 0 10 -262144
-1 -1;
#N canvas 720 275 450 300 sequence_chooser 0;
#X obj 48 42 inlet sequence_number;
#X msg 138 102 36 40 44 48 52 56 60 64 68 72 76 80;
#X obj 48 72 sel 0 1 2 3;
#X msg 138 132 36 80 44 72 52 64 60 56 68 46 76 40;
#X msg 138 162 36 44 52 60 68 76 40 48 56 64 72 80;
#X msg 138 192 80 76 72 68 64 60 56 52 48 44 40 36;
#X obj 48 222 outlet sequence;
#X connect 0 0 2 0;
#X connect 1 0 6 0;
#X connect 2 0 1 0;
#X connect 2 1 3 0;
#X connect 2 2 4 0;
#X connect 2 3 5 0;
#X connect 3 0 6 0;
#X connect 4 0 6 0;
#X connect 5 0 6 0;
#X restore 173 91 pd sequence_chooser;
#X obj -46 61 hradio 17 1 0 6 tempo empty tempo 0 -8 0 10 -262144 -1
-1 2;
#X obj -46 1 tgl 17 0 master_toggle empty master_toggle 19 8 0 10 -262144
-1 -1 1 1;
#X obj -46 121 hradio 17 1 0 4 sequence empty sequence 0 -8 0 10 -262144
-1 -1 0;
#X obj 104 1 r master_toggle;
#X obj 149 31 r tempo;
#X obj -76 91 loadbang;
#X obj -76 31 loadbang;
#X obj 173 61 r sequence;
#X connect 0 0 1 0;
#X connect 0 2 1 1;
#X connect 1 0 2 0;
#X connect 1 0 3 0;
#X connect 4 0 1 2;
#X connect 8 0 0 0;
#X connect 9 0 0 1;
#X connect 10 0 7 0;
#X connect 11 0 5 0;
#X connect 12 0 4 0;
