#N canvas 0 0 1354 683 10;
#X obj 254 129 metro;
#X obj 281 98 r tempo_ms;
#X obj 104 67 r tempo_bpm;
#X obj 104 127 s tempo_ms;
#X floatatom 346 99 5 0 0 0 - - -;
#X floatatom 175 68 5 0 0 0 - - -;
#X obj -179 129 hradio 15 1 0 6 tempo empty tempo 0 -8 0 10 -262144
-1 -1 0;
#X floatatom 1 68 5 0 0 0 - - -;
#X floatatom 25 128 5 0 0 0 - - -;
#X obj -46 127 s tempo_bpm;
#X obj 104 97 expr 60000 / $f1;
#X floatatom 169 128 5 0 0 0 - - -;
#X obj 254 159 s metro;
#X obj 301 161 bng 15 250 50 0 empty empty empty 17 7 0 10 -262144
-1 -1;
#X obj -46 97 expr ($f1 + 2) * 30;
#X obj 404 68 r metro;
#X obj 404 128 expr $f1 % 4;
#X obj 450 70 bng 15 250 50 0 empty empty empty 17 7 0 10 -262144 -1
-1;
#X obj 404 98 i 0;
#X obj 426 98 + 1;
#X obj -196 97 loadbang;
#X obj -196 69 tgl 15 0 master_toggle empty master_toggle 17 7 0 10
-262144 -1 -1 1 1;
#X obj 254 69 r master_toggle;
#X obj 554 98 select 0;
#X obj 554 128 i 0;
#X obj 576 128 + 1;
#X obj 554 158 expr $f1 % 12;
#X floatatom 631 68 5 0 0 0 - - -;
#X obj 554 68 r note_index;
#X obj 404 158 s note_index;
#X obj 554 188 s row_index;
#X obj -196 219 hradio 15 1 0 4 empty note_index note_index 0 -8 0
10 -262144 -1 -1 0;
#X obj -196 249 hradio 15 1 0 12 empty row_index row_index 0 -8 0 10
-262144 -1 -1 9;
#X obj -179 159 hradio 15 1 0 4 sequence empty sequence 0 -8 0 10 -262144
-1 -1 2;
#X obj -46 67 r tempo;
#X msg 794 128 36 40 44 48 52 56 60 64 68 72 76 80;
#X obj 704 98 sel 0 1 2 3;
#X obj 704 68 r sequence;
#X msg 794 158 36 80 44 72 52 64 60 56 68 46 76 40;
#X msg 794 188 36 44 52 60 68 76 40 48 56 64 72 80;
#X msg 794 218 80 76 72 68 64 60 56 52 48 44 40 36;
#X floatatom 769 69 5 0 0 0 - - -;
#X obj 704 248 s sequence_list;
#N canvas 637 237 582 324 sequencer 1;
#X obj 54 69 sel 0 1 2 3 4 5 6 7 8 9 10 11;
#X obj 54 189 i;
#X floatatom 69 40 5 0 0 0 - - -;
#X floatatom 109 40 5 0 0 0 - - -;
#X floatatom 149 40 5 0 0 0 - - -;
#X floatatom 189 40 5 0 0 0 - - -;
#X floatatom 229 40 5 0 0 0 - - -;
#X floatatom 269 40 5 0 0 0 - - -;
#X floatatom 309 40 5 0 0 0 - - -;
#X floatatom 349 40 5 0 0 0 - - -;
#X floatatom 389 40 5 0 0 0 - - -;
#X floatatom 429 40 5 0 0 0 - - -;
#X floatatom 469 40 5 0 0 0 - - -;
#X floatatom 509 40 5 0 0 0 - - -;
#X obj 54 129 i;
#X obj 94 129 i;
#X obj 134 129 i;
#X obj 174 129 i;
#X obj 214 129 i;
#X obj 254 129 i;
#X obj 294 129 i;
#X obj 334 129 i;
#X obj 374 129 i;
#X obj 414 129 i;
#X obj 454 129 i;
#X obj 494 129 i;
#X obj 54 9 unpack f f f f f f f f f f f f;
#X obj 24 99 loadbang;
#X obj 54 219 outlet midi_pitch;
#X obj 24 -21 inlet midi_sequence;
#X obj -6 -51 inlet sequence_index;
#X obj -36 -81 inlet metro;
#X connect 0 0 14 0;
#X connect 0 1 15 0;
#X connect 0 2 16 0;
#X connect 0 3 17 0;
#X connect 0 4 18 0;
#X connect 0 5 19 0;
#X connect 0 6 20 0;
#X connect 0 7 21 0;
#X connect 0 8 22 0;
#X connect 0 9 23 0;
#X connect 0 10 24 0;
#X connect 0 11 25 0;
#X connect 1 0 28 0;
#X connect 2 0 14 1;
#X connect 3 0 15 1;
#X connect 4 0 16 1;
#X connect 5 0 17 1;
#X connect 6 0 18 1;
#X connect 7 0 19 1;
#X connect 8 0 20 1;
#X connect 9 0 21 1;
#X connect 10 0 22 1;
#X connect 11 0 23 1;
#X connect 12 0 24 1;
#X connect 13 0 25 1;
#X connect 14 0 1 1;
#X connect 15 0 1 1;
#X connect 16 0 1 1;
#X connect 17 0 1 1;
#X connect 18 0 1 1;
#X connect 19 0 1 1;
#X connect 20 0 1 1;
#X connect 21 0 1 1;
#X connect 22 0 1 1;
#X connect 23 0 1 1;
#X connect 24 0 1 1;
#X connect 25 0 1 1;
#X connect 26 0 2 0;
#X connect 26 1 3 0;
#X connect 26 2 4 0;
#X connect 26 3 5 0;
#X connect 26 4 6 0;
#X connect 26 5 7 0;
#X connect 26 6 8 0;
#X connect 26 7 9 0;
#X connect 26 8 10 0;
#X connect 26 9 11 0;
#X connect 26 10 12 0;
#X connect 26 11 13 0;
#X connect 27 0 14 0;
#X connect 29 0 26 0;
#X connect 30 0 0 0;
#X connect 31 0 1 0;
#X restore 103 367 pd sequencer;
#X obj 103 277 r metro;
#X floatatom 103 398 5 0 0 0 - - -;
#X obj 136 399 bng 15 250 50 0 empty empty empty 17 7 0 10 -262144
-1 -1;
#X obj 172 336 r sequence_list;
#X obj 137 307 r row_index;
#X connect 0 0 12 0;
#X connect 0 0 13 0;
#X connect 1 0 0 1;
#X connect 1 0 4 0;
#X connect 2 0 5 0;
#X connect 2 0 10 0;
#X connect 10 0 3 0;
#X connect 10 0 11 0;
#X connect 14 0 8 0;
#X connect 14 0 9 0;
#X connect 15 0 17 0;
#X connect 15 0 18 0;
#X connect 16 0 29 0;
#X connect 18 0 16 0;
#X connect 18 0 19 0;
#X connect 19 0 18 1;
#X connect 20 0 6 0;
#X connect 20 0 33 0;
#X connect 22 0 0 0;
#X connect 23 0 24 0;
#X connect 24 0 25 0;
#X connect 24 0 26 0;
#X connect 25 0 24 1;
#X connect 26 0 30 0;
#X connect 28 0 23 0;
#X connect 28 0 27 0;
#X connect 34 0 7 0;
#X connect 34 0 14 0;
#X connect 35 0 42 0;
#X connect 36 0 35 0;
#X connect 36 1 38 0;
#X connect 36 2 39 0;
#X connect 36 3 40 0;
#X connect 37 0 36 0;
#X connect 37 0 41 0;
#X connect 38 0 42 0;
#X connect 39 0 42 0;
#X connect 40 0 42 0;
#X connect 43 0 45 0;
#X connect 43 0 46 0;
#X connect 44 0 43 0;
#X connect 47 0 43 2;
#X connect 48 0 43 1;
