#N canvas 657 215 626 459 10;
#X obj -118 11 inlet;
#X obj -19 161 delay;
#X msg -19 191 0;
#X obj -58 281 mtof;
#X obj -58 311 osc~;
#X obj -58 371 *~;
#X obj -58 101 t f b b;
#X obj 7 192 bng 15 250 50 0 empty empty empty 17 7 0 10 -262144 -1
-1;
#N canvas 264 286 152 287 pitch_chooser 0;
#X obj -98 9 inlet;
#X floatatom -2 69 5 0 0 0 - - -;
#X obj -68 105 sel 0 1 2;
#X obj -68 39 t b f;
#X obj -68 69 random 4;
#X msg -68 135 0;
#X msg -51 165 3;
#X msg -34 135 4;
#X msg -17 165 7;
#X obj -17 215 +;
#X obj -98 245 outlet;
#X connect 0 0 3 0;
#X connect 1 0 9 1;
#X connect 2 0 5 0;
#X connect 2 1 6 0;
#X connect 2 2 7 0;
#X connect 2 3 8 0;
#X connect 3 0 4 0;
#X connect 3 1 1 0;
#X connect 4 0 2 0;
#X connect 5 0 9 0;
#X connect 6 0 9 0;
#X connect 7 0 9 0;
#X connect 8 0 9 0;
#X connect 9 0 10 0;
#X restore -58 251 pd pitch_chooser;
#N canvas 268 137 450 300 vol_chooser 0;
#X obj 121 172 max;
#X obj 121 82 t b b;
#X obj 121 202 * 0.003;
#X obj 136 142 random 100;
#X obj 121 112 random 100;
#X obj 91 52 inlet;
#X obj 91 232 outlet;
#X connect 0 0 2 0;
#X connect 1 0 4 0;
#X connect 1 1 3 0;
#X connect 2 0 6 0;
#X connect 3 0 0 1;
#X connect 4 0 0 0;
#X connect 5 0 1 0;
#X restore -39 221 pd vol_chooser;
#N canvas 311 215 450 403 dur_chooser 0;
#X obj 81 195 * 15;
#X obj 81 165 + 15;
#X obj 24 15 inlet;
#X obj 51 285 outlet;
#X obj 24 255 outlet;
#X obj 81 135 max;
#X obj 81 75 random 60;
#X obj 96 105 random 60;
#X obj 54 45 t b b b b;
#X floatatom 81 226 5 0 0 0 - - -;
#X obj 54 227 bng 15 250 50 0 empty empty empty 17 7 0 10 -262144 -1
-1;
#X connect 0 0 9 0;
#X connect 1 0 0 0;
#X connect 2 0 8 0;
#X connect 5 0 1 0;
#X connect 6 0 5 0;
#X connect 7 0 5 1;
#X connect 8 0 10 0;
#X connect 8 1 6 0;
#X connect 8 2 7 0;
#X connect 9 0 3 0;
#X connect 10 0 4 0;
#X restore -19 131 pd dur_chooser;
#X obj -88 401 outlet~;
#X obj 2 281 osc~ 2;
#X obj -58 341 *~;
#X floatatom -58 72 5 0 0 0 - - -;
#X obj -88 41 inlet;
#X connect 0 0 14 0;
#X connect 1 0 2 0;
#X connect 2 0 5 1;
#X connect 2 0 7 0;
#X connect 3 0 4 0;
#X connect 4 0 13 0;
#X connect 5 0 11 0;
#X connect 6 0 8 0;
#X connect 6 1 9 0;
#X connect 6 2 10 0;
#X connect 8 0 3 0;
#X connect 9 0 5 1;
#X connect 10 0 1 0;
#X connect 10 1 1 1;
#X connect 12 0 13 0;
#X connect 13 0 5 0;
#X connect 14 0 6 0;
#X connect 15 0 13 1;
